<?xml version="1.0" encoding="UTF-8"?><!DOCTYPE svg PUBLIC "-//W3C//DTD SVG 1.1//EN" "http://www.w3.org/Graphics/SVG/1.1/DTD/svg11.dtd"><svg xmlns="http://www.w3.org/2000/svg"><symbol id="icon-alarm" viewBox="0 0 60 60">
    <path d="M4.802 22.793a.999.999 0 0 0-1.414 0A11.503 11.503 0 0 0 0 30.983c0 3.097 1.203 6.006 3.388 8.19a.997.997 0 0 0 1.414 0 .999.999 0 0 0 0-1.414A9.517 9.517 0 0 1 2 30.983c0-2.563.995-4.97 2.802-6.776a1 1 0 0 0 0-1.414z"/>
    <path d="M8.305 37.19a.999.999 0 0 0 .707-1.707 6.565 6.565 0 0 1 0-9.276.999.999 0 1 0-1.414-1.414c-3.337 3.337-3.337 8.768 0 12.104a.993.993 0 0 0 .707.293z"/>
    <path d="M56.612 22.793a.999.999 0 1 0-1.414 1.414A9.517 9.517 0 0 1 58 30.983a9.517 9.517 0 0 1-2.802 6.776.999.999 0 1 0 1.414 1.414A11.502 11.502 0 0 0 60 30.983c0-3.097-1.203-6.005-3.388-8.19z"/>
    <path d="M50.988 24.793a.999.999 0 0 0 0 1.414 6.565 6.565 0 0 1 0 9.276.999.999 0 1 0 1.414 1.414c3.337-3.337 3.337-8.768 0-12.104a.999.999 0 0 0-1.414 0z"/>
    <path d="M47.025 31.5v-8.994c.043-6.857-4.568-11.405-8.53-13.216A19.288 19.288 0 0 0 35 8.112V7.5c0-2.757-2.243-5-5-5s-5 2.243-5 5v.706c-1.079.283-2.139.629-3.146 1.093C17.476 11.317 13.04 16.181 13 22.5v9c0 6.388-2.256 11.869-6.705 16.291a1.002 1.002 0 0 0 .535 1.695l9.491 1.639c1.79.309 3.415.556 4.944.758 1.745 3.422 5.172 5.618 8.918 5.618 3.747 0 7.175-2.198 8.919-5.621a124.04 124.04 0 0 0 4.92-.755l9.49-1.639a1 1 0 0 0 .535-1.695c-4.66-4.631-7.022-10.112-7.022-16.291zM27 7.5c0-1.654 1.346-3 3-3s3 1.346 3 3v.193a20.176 20.176 0 0 0-6 .05V7.5zm-8 16h-.006A1.001 1.001 0 0 1 18 22.494c.03-4.682 3.752-7.643 5.948-8.654 3.849-1.775 8.594-1.772 12.469-.002a1 1 0 1 1-.832 1.818c-3.353-1.533-7.469-1.537-10.799 0-1.767.814-4.762 3.173-4.785 6.85A1.001 1.001 0 0 1 19 23.5zm17.605 28.678c-1.519 2.062-3.888 3.322-6.423 3.322-2.534 0-4.902-1.26-6.421-3.32h.001c.392.04.772.073 1.152.105.187.016.379.036.564.051.137.011.269.018.404.027 2.906.212 5.583.213 8.486.006.17-.012.336-.021.508-.034.214-.017.436-.039.654-.059.343-.03.684-.059 1.036-.095l.039-.003z"/>
</symbol><symbol id="icon-chat" viewBox="0 0 60 60">
    <path d="M54 2H6C2.748 2 0 4.748 0 8v33c0 3.252 2.748 6 6 6h28.558l9.703 10.673A1 1 0 0 0 46 57V47h8c3.252 0 6-2.748 6-6V8c0-3.252-2.748-6-6-6z"/>
</symbol><symbol id="icon-circle" viewBox="0 0 438.533 438.533">
    <path d="M409.133 109.203c-19.608-33.592-46.205-60.189-79.798-79.796C295.736 9.801 259.058 0 219.273 0c-39.781 0-76.47 9.801-110.063 29.407-33.595 19.604-60.192 46.201-79.8 79.796C9.801 142.8 0 179.489 0 219.267c0 39.78 9.804 76.463 29.407 110.062 19.607 33.592 46.204 60.189 79.799 79.798 33.597 19.605 70.283 29.407 110.063 29.407s76.47-9.802 110.065-29.407c33.593-19.602 60.189-46.206 79.795-79.798 19.603-33.596 29.403-70.284 29.403-110.062.001-39.782-9.8-76.472-29.399-110.064z"/>
</symbol><symbol id="icon-close" viewBox="0 0 14 14">
    <path d="M14 1.4L12.6 0 7 5.6 1.4 0 0 1.4 5.6 7 0 12.6 1.4 14 7 8.4l5.6 5.6 1.4-1.4L8.4 7 14 1.4z"/>
</symbol><symbol id="icon-facebook" viewBox="0 0 10 19">
    <title>
        facebook
    </title>
    <path d="M9.766.157v2.946H8.014c-.64 0-1.071.134-1.295.402-.223.268-.335.67-.335 1.205v2.11h3.27l-.435 3.303H6.384v8.471H2.97v-8.47H.123V6.82H2.97V4.387c0-1.384.387-2.457 1.161-3.22C4.904.404 5.934.023 7.222.023c1.093 0 1.941.045 2.544.134z" fill-rule="evenodd"/>
</symbol><symbol id="icon-layout1" viewBox="0 0 460.002 460.002">
    <path d="M427.137 0H32.865C14.743 0 0 14.743 0 32.865v394.272c0 18.122 14.743 32.865 32.865 32.865h394.272c18.122 0 32.865-14.743 32.865-32.865V32.865C460.002 14.743 445.259 0 427.137 0zm2.865 427.137a2.868 2.868 0 0 1-2.865 2.865H32.865A2.868 2.868 0 0 1 30 427.137V32.865A2.868 2.868 0 0 1 32.865 30h394.272a2.868 2.868 0 0 1 2.865 2.865v394.272z"/>
    <path d="M109.153 123.001H256.85c8.284 0 15-6.716 15-15s-6.716-15-15-15H109.153c-8.284 0-15 6.716-15 15s6.716 15 15 15z"/>
    <path d="M350.85 215.001H109.153c-8.284 0-15 6.716-15 15s6.716 15 15 15H350.85c8.284 0 15-6.716 15-15s-6.716-15-15-15z"/>
    <path d="M350.85 337.001H109.153c-8.284 0-15 6.716-15 15s6.716 15 15 15H350.85c8.284 0 15-6.716 15-15s-6.716-15-15-15z"/>
</symbol><symbol id="icon-layout2" viewBox="0 0 202.622 202.622">
    <path d="M198.724 0H3.897A3.896 3.896 0 0 0 0 3.897v194.828a3.896 3.896 0 0 0 3.897 3.897h194.828a3.896 3.896 0 0 0 3.897-3.897V3.897A3.898 3.898 0 0 0 198.724 0zM97.414 101.31v93.517H7.793V7.793h89.621v93.517zm97.414 93.518h-89.621v-89.621h89.621v89.621zm0-97.414h-89.621V7.793h89.621v89.621z"/>
</symbol><symbol id="icon-layout3" viewBox="0 0 35 35">
    <path d="M0 0h15.909v35H0z"/>
    <path d="M19.091 12.727H35v9.546H19.091z"/>
    <path d="M19.091 0H35v9.545H19.091z"/>
    <path d="M19.091 25.455H35V35H19.091z"/>
</symbol><symbol id="icon-layout4" viewBox="0 0 35 35.001">
    <path d="M0 0h35v7.785H0z"/>
    <path d="M19.092 10.653H35v24.348H19.092z"/>
    <path d="M0 10.653h15.908v24.348H0z"/>
</symbol><symbol id="icon-logo" viewBox="0 0 384 384">
    <path d="M213.333 0H384v128H213.333z"/>
    <path d="M0 0h170.667v213.333H0z"/>
    <path d="M0 256h170.667v128H0z"/>
    <path d="M213.333 170.667H384V384H213.333z"/>
</symbol><symbol id="icon-search" viewBox="0 0 512 512">
    <path d="M495 466.2L377.2 348.4c29.2-35.6 46.8-81.2 46.8-130.9C424 103.5 331.5 11 217.5 11 103.4 11 11 103.5 11 217.5S103.4 424 217.5 424c49.7 0 95.2-17.5 130.8-46.7L466.1 495c8 8 20.9 8 28.9 0 8-7.9 8-20.9 0-28.8zm-277.5-83.3C126.2 382.9 52 308.7 52 217.5S126.2 52 217.5 52C308.7 52 383 126.3 383 217.5s-74.3 165.4-165.5 165.4z"/>
</symbol><symbol id="icon-user" viewBox="0 0 299.997 299.997">
    <path d="M149.996 0C67.157 0 .001 67.158.001 149.997c0 82.837 67.156 150 149.995 150s150-67.163 150-150C299.996 67.156 232.835 0 149.996 0zm.457 220.763v-.002H85.465c0-46.856 41.152-46.845 50.284-59.097l1.045-5.587c-12.83-6.502-21.887-22.178-21.887-40.512 0-24.154 15.712-43.738 35.089-43.738s35.089 19.584 35.089 43.738c0 18.178-8.896 33.756-21.555 40.361l1.19 6.349c10.019 11.658 49.802 12.418 49.802 58.488h-64.069z"/>
</symbol></svg>